<svg width="20" height="20" viewBox="0 0 20 20" fill="none" xmlns="http://www.w3.org/2000/svg">
<path d="M10.0002 17C9.44829 17 9.00016 16.5506 9.00016 15.9991H8.00016C8.00016 17.1025 8.89766 18 10.0002 18C11.1027 18 12.0002 17.1025 12.0002 15.9991H11.0002C11.0002 16.5506 10.552 17 10.0002 17ZM16.5433 12.4628C15.6695 11.6309 15.0014 10.7603 15.0014 7.80937C15.0014 5.32219 13.0205 3.29375 10.5002 3.04844V2.5C10.5002 2.22375 10.2764 2 10.0002 2C9.72391 2 9.50016 2.22375 9.50016 2.5V3.04875C6.97984 3.29406 4.9989 5.32219 4.9989 7.80937C4.9989 10.76 4.33046 11.6309 3.45671 12.4628C3.02015 12.8784 2.88234 13.5069 3.10515 14.0638C3.33265 14.6325 3.88015 15 4.50015 15H15.5002C16.1202 15 16.6677 14.6322 16.8952 14.0634C17.118 13.5066 16.9799 12.8784 16.5433 12.4628ZM15.5002 14H4.50015C4.05546 14 3.83328 13.4853 4.1464 13.1872C5.23578 12.15 5.9989 10.9891 5.9989 7.80969C5.9989 5.70406 7.7886 4 10.0002 4C12.2114 4 14.0014 5.70375 14.0014 7.80937C14.0014 10.9766 14.758 12.1438 15.8539 13.1869C16.1683 13.4866 15.943 14 15.5002 14Z" fill="#f11075"/>
</svg>
